<svg xmlns="http://www.w3.org/2000/svg" width="59.16" height="49.403" viewBox="0 0 59.16 49.403">
  <g id="Grupo_1" data-name="Grupo 1" transform="translate(-239 -140)">
    <g id="path3033" transform="translate(242 143)" fill="#1097b0" stroke-linecap="round" stroke-linejoin="round">
      <path d="M 3.925398111343384 47.35386657714844 L 3.925398111343384 43.40313339233398 L 3.925398111343384 34.66695785522461 C 0.5995775461196899 32.83374404907227 -1.500001907348633 29.32271575927734 -1.500001907348633 25.46433448791504 L -1.500001907348633 15.00733470916748 C -1.500001907348633 12.20413494110107 -0.4128418862819672 9.573184967041016 1.561198115348816 7.599134922027588 C 3.535248041152954 5.625094890594482 6.166198253631592 4.53793478012085 8.969398498535156 4.53793478012085 L 30.01473808288574 4.53793478012085 C 31.73847579956055 4.53793478012085 33.39932632446289 4.948233127593994 34.8841667175293 5.722222328186035 C 33.40725708007812 4.926844596862793 31.71897888183594 4.475214958190918 29.9272289276123 4.475214958190918 L 21.9203987121582 4.475214958190918 L 18.90128898620605 4.475214958190918 L 20.72497749328613 2.069144725799561 C 22.44418907165527 -0.1990952044725418 25.04875755310059 -1.499995231628418 27.87082862854004 -1.499995231628418 L 45.67836761474609 -1.499995231628418 C 48.08260726928711 -1.499995231628418 50.339599609375 -0.5669552087783813 52.03357696533203 1.127244830131531 C 53.72735977172852 2.821234703063965 54.66015625 5.077984809875488 54.66015625 7.481784820556641 L 54.66015625 14.96357440948486 C 54.66015625 18.20165824890137 52.92041015625 21.1606502532959 50.15357971191406 22.7541332244873 L 50.15357971191406 29.97090530395508 L 50.15357971191406 33.87795639038086 L 47.53895950317383 30.9747142791748 L 40.80096817016602 23.49293518066406 L 40.52788925170898 23.1897029876709 L 40.52788925170898 25.46433448791504 C 40.52788925170898 31.26130485534668 35.81170654296875 35.97748565673828 30.01473808288574 35.97748565673828 L 14.01913642883301 35.97748565673828 L 6.547418117523193 44.39865493774414 L 3.925398111343384 47.35386657714844 Z" stroke="none"/>
      <path d="M 27.87082862854004 -3.814697265625e-06 C 25.43044853210449 -3.814697265625e-06 23.28829765319824 1.170486450195312 21.9203987121582 2.975215911865234 L 29.9272289276123 2.975215911865234 C 36.55250549316406 2.975215911865234 41.91558837890625 8.336894989013672 41.91558837890625 14.96357536315918 L 41.91558837890625 22.4891242980957 L 48.65357971191406 29.97090530395508 L 48.65357971191406 21.83282470703125 C 51.3039665222168 20.67774391174316 53.16015625 18.03960418701172 53.16015625 14.96357536315918 L 53.16015625 7.481784820556641 C 53.16015625 3.340286254882812 49.82125854492188 -3.814697265625e-06 45.67836761474609 -3.814697265625e-06 L 27.87082862854004 -3.814697265625e-06 M 8.969398498535156 6.037933349609375 C 4.001838684082031 6.037933349609375 0 10.03977584838867 0 15.0073356628418 L 0 25.46433448791504 C 0 29.16760444641113 2.231769561767578 32.35317611694336 5.425388336181641 33.73368453979492 L 5.425388336181641 43.40312576293945 L 13.34470748901367 34.47748565673828 L 30.01473808288574 34.47748565673828 C 34.9822883605957 34.47748565673828 39.02788925170898 30.43329620361328 39.02788925170898 25.46433448791504 L 39.02788925170898 15.0073356628418 C 39.02788925170898 10.03977584838867 34.98368835449219 6.037933349609375 30.01473808288574 6.037933349609375 L 8.969398498535156 6.037933349609375 M 27.87082862854004 -3.000003814697266 L 45.67836761474609 -3.000003814697266 C 48.48329925537109 -3.000003814697266 51.11699676513672 -1.910915374755859 53.09430694580078 0.06664657592773438 C 55.07134628295898 2.0439453125 56.16015625 4.677352905273438 56.16015625 7.481784820556641 L 56.16015625 14.96357536315918 C 56.16015625 18.43991088867188 54.44202423095703 21.64051055908203 51.65357971191406 23.57788467407227 L 51.65357971191406 29.97090530395508 C 51.65357971191406 31.2128849029541 50.88828659057617 32.32644653320312 49.72881698608398 32.7715950012207 C 48.56935882568359 33.21673583984375 47.25548934936523 32.90140533447266 46.42434692382812 31.97852516174316 L 41.93151092529297 26.98973655700684 C 41.17966842651367 32.89616775512695 36.12210845947266 37.47748565673828 30.01473808288574 37.47748565673828 L 14.69355392456055 37.47748565673828 L 7.669437408447266 45.3941650390625 C 6.842453002929688 46.32622528076172 5.525436401367188 46.65006637573242 4.360527038574219 46.2077751159668 C 3.195629119873047 45.76548385620117 2.425388336181641 44.64916610717773 2.425388336181641 43.40312576293945 L 2.425388336181641 35.51399993896484 C -0.92401123046875 33.32307434082031 -3 29.56543922424316 -3 25.46433448791504 L -3 15.0073356628418 C -3 11.80347442626953 -1.756820678710938 8.795845031738281 0.5005378723144531 6.538475036621094 C 2.757907867431641 4.281116485595703 5.765537261962891 3.037933349609375 8.969398498535156 3.037933349609375 L 18.92102813720703 3.037933349609375 C 18.90726470947266 2.3743896484375 19.1136360168457 1.711803436279297 19.52955627441406 1.163063049316406 C 21.53486824035645 -1.482624053955078 24.57513809204102 -3.000003814697266 27.87082862854004 -3.000003814697266 Z" stroke="none" fill="#fff"/>
    </g>
    <text id="_" data-name="?" transform="translate(261.329 171.946)" fill="#fff" font-size="24" font-family="Roboto-Black, Roboto" font-weight="800"><tspan x="-6.111" y="0">?</tspan></text>
  </g>
</svg>
